<?xml version="1.0" encoding="UTF-8"?><svg id="Camada_2" xmlns="http://www.w3.org/2000/svg" viewBox="0 0 78.72 95.63"><defs><style>.cls-1{fill:#fff;}</style></defs><g id="Weapons"><path class="cls-1" d="M63.15,24.09c-.73,0-1.49-.05-2.24-.16-3.12-4.18-7.26-7.6-11.98-9.92-.18-.87-.27-1.81-.27-2.79,0-6.19,5.03-11.22,11.22-11.22,5.49,0,10.25,4.08,11.08,9.5.05.28,1.3,6.32,5.76,6.32.77,0,1.44-.2,1.99-.47-2.23,3.26-7.22,8.73-15.56,8.73Z"/><path class="cls-1" d="M34.4,30.76l-27.59,11.93c.27-7.02,3.15-13.58,8.17-18.55,5.2-5.15,12.1-7.98,19.43-7.98s14.22,2.83,19.43,7.98c5.02,4.96,7.9,11.52,8.17,18.55l-27.59-11.93Z"/><polygon class="cls-1" points="6.78 80.51 6.78 71.88 34.42 82.72 62.03 71.8 62.03 80.51 34.4 95.63 6.78 80.51"/><polygon class="cls-1" points="0 63.3 0 51.66 13.51 45.82 13.51 68.59 0 63.3"/><polygon class="cls-1" points="18.97 70.73 18.97 43.46 31.68 37.96 31.68 75.72 18.97 70.73"/><polygon class="cls-1" points="37.13 37.96 49.79 43.43 49.79 70.7 37.13 75.7 37.13 37.96"/><polygon class="cls-1" points="55.24 45.8 68.81 51.66 68.81 63.17 55.24 68.54 55.24 45.8"/></g></svg>