<?xml version="1.0" encoding="UTF-8"?><svg id="Camada_2" xmlns="http://www.w3.org/2000/svg" viewBox="0 0 81.73 87.14"><defs><style>.cls-1{fill:#fff;}</style></defs><g id="Weapons"><path class="cls-1" d="M22.03,19.41c2.21-3.1,3.75-6.66,4.49-10.37,4.02,3.36,9.08,5.21,14.34,5.21s10.33-1.84,14.34-5.21c.74,3.71,2.28,7.27,4.49,10.37l-18.84,6.62-18.84-6.62Z"/><path class="cls-1" d="M17.64,52.36l-8.15-23.34c3.17-1.18,6.04-2.92,8.55-5.17l20.1,7.08v28.65l-20.5-7.22Z"/><path class="cls-1" d="M43.59,30.94l20.1-7.08c2.51,2.25,5.38,3.99,8.55,5.17l-8.15,23.34-20.5,7.22v-28.65Z"/><path class="cls-1" d="M.16,25.91c-.1-.89-.16-1.81-.16-2.74,0-3.53.77-6.91,2.28-10.04,1.99-4.17,5.15-7.61,9.12-9.96,3.07-1.82,6.43-2.89,9.97-3.17.1.89.16,1.81.16,2.74,0,5.59-2.01,10.98-5.65,15.18C10.19,24.48,2.54,25.69.16,25.91Z"/><polygon class="cls-1" points="8.66 87.14 8.66 74.82 17.39 58.13 40.87 66.39 64.34 58.13 73.07 74.82 73.07 87.14 8.66 87.14"/><path class="cls-1" d="M81.57,25.91c-2.39-.22-10.03-1.43-15.72-7.99-3.64-4.2-5.65-9.59-5.65-15.18,0-.93.05-1.85.16-2.74,3.55.28,6.9,1.35,9.97,3.17,3.97,2.35,7.13,5.79,9.12,9.96,1.51,3.14,2.28,6.52,2.28,10.04,0,.93-.05,1.84-.16,2.74Z"/></g></svg>