<?xml version="1.0" encoding="UTF-8"?><svg id="Camada_2" xmlns="http://www.w3.org/2000/svg" xmlns:xlink="http://www.w3.org/1999/xlink" viewBox="0 0 128 128"><defs><style>.cls-1{fill:#272725;}.cls-2{fill:#363535;}.cls-3{fill:#383737;}.cls-4{fill:#2b2b29;}.cls-5{fill:#242422;}.cls-6{fill:#282826;}.cls-7{fill:#323131;}.cls-8{fill:#403f3f;}.cls-9{fill:#454444;}.cls-10{fill:#222220;}.cls-11{fill:#2e2e2c;}.cls-12{fill:none;}.cls-13{fill:#373636;}.cls-14{fill:#292927;}.cls-15{fill:#434242;}.cls-16{fill:#3b3a3a;}.cls-17{fill:#3d3c3c;}.cls-18{fill:#3f3e3e;}.cls-19{fill:#2d2d2b;}.cls-20{fill:#1e1e1c;}.cls-21{fill:#232321;}.cls-22{fill:#2a2a28;}.cls-23{fill:#313130;}.cls-24{fill:#3a3939;}.cls-25{fill:#3c3b3b;}.cls-26{fill:#464646;}.cls-27{fill:#252523;}.cls-28{fill:#444343;}.cls-29{fill:#262624;}.cls-30{fill:#1f1f1d;}.cls-31{fill:#1d1d1b;}.cls-32{fill:#2f2f2d;}.cls-33{fill:#20201e;}.cls-34{fill:#2c2c2a;}.cls-35{fill:#424141;}.cls-36{fill:#21211f;}.cls-37{fill:#343333;}.cls-38{fill:#333232;}.cls-39{fill:#3e3d3d;}.cls-40{fill:#353434;}.cls-41{fill:#30302e;}.cls-42{clip-path:url(#clippath);}.cls-43{fill:#393838;}.cls-44{fill:#414040;}</style><clipPath id="clippath"><rect class="cls-12" x="3.2" y="3.2" width="256" height="256"/></clipPath></defs><g id="BG"><g class="cls-42"><rect class="cls-31" x="3.2" y="3.2" width="121.6" height="121.6"/><circle class="cls-31" cx="64" cy="64" r="44.11"/><circle class="cls-20" cx="64" cy="64" r="43.03"/><circle class="cls-30" cx="64" cy="64" r="41.96"/><circle class="cls-33" cx="64" cy="64" r="40.88"/><circle class="cls-36" cx="64" cy="64" r="39.81"/><circle class="cls-10" cx="64" cy="64" r="38.73"/><circle class="cls-21" cx="64" cy="64" r="37.65"/><circle class="cls-5" cx="64" cy="64" r="36.58"/><circle class="cls-27" cx="64" cy="64" r="35.5"/><circle class="cls-29" cx="64" cy="64" r="34.43"/><circle class="cls-1" cx="64" cy="64" r="33.35"/><circle class="cls-6" cx="64" cy="64" r="32.27"/><circle class="cls-14" cx="64" cy="64" r="31.2"/><circle class="cls-22" cx="64" cy="64" r="30.12"/><circle class="cls-4" cx="64" cy="64" r="29.05"/><circle class="cls-34" cx="64" cy="64" r="27.97"/><circle class="cls-19" cx="64" cy="64" r="26.9"/><circle class="cls-11" cx="64" cy="64" r="25.82"/><circle class="cls-32" cx="64" cy="64" r="24.74"/><circle class="cls-41" cx="64" cy="64" r="23.67"/><circle class="cls-23" cx="64" cy="64" r="22.59"/><circle class="cls-7" cx="64" cy="64" r="21.52"/><circle class="cls-38" cx="64" cy="64" r="20.44"/><circle class="cls-37" cx="64" cy="64" r="19.36"/><circle class="cls-40" cx="64" cy="64" r="18.29"/><circle class="cls-2" cx="64" cy="64" r="17.21"/><circle class="cls-13" cx="64" cy="64" r="16.14"/><circle class="cls-3" cx="64" cy="64" r="15.06"/><circle class="cls-43" cx="64" cy="64" r="13.99"/><circle class="cls-24" cx="64" cy="64" r="12.91"/><circle class="cls-16" cx="64" cy="64" r="11.83"/><circle class="cls-25" cx="64" cy="64" r="10.76"/><circle class="cls-17" cx="64" cy="64" r="9.68"/><circle class="cls-39" cx="64" cy="64" r="8.61"/><circle class="cls-18" cx="64" cy="64" r="7.53"/><circle class="cls-8" cx="64" cy="64" r="6.45"/><circle class="cls-44" cx="64" cy="64" r="5.38"/><circle class="cls-35" cx="64" cy="64" r="4.3"/><circle class="cls-15" cx="64" cy="64" r="3.23"/><circle class="cls-28" cx="64" cy="64" r="2.15"/><circle class="cls-9" cx="64" cy="64" r="1.08"/></g><path class="cls-26" d="M121.6,6.4v115.2H6.4V6.4h115.2M128,0H0v128h128V0h0Z"/></g></svg>